<svg width="272" height="44" viewBox="0 0 272 44" fill="none" xmlns="http://www.w3.org/2000/svg">
<path d="M27.3563 28.429C27.3563 29.8985 27.2528 31.2927 27.0458 32.6114C26.8387 33.9114 26.5376 35.1171 26.1423 36.2286C25.7095 37.4532 25.1354 38.5648 24.4202 39.5633C23.7238 40.5618 22.8957 41.3907 21.9359 42.0501C21.0701 42.6718 20.0914 43.1428 18.9998 43.4631C17.927 43.8022 16.7413 43.9717 15.4426 43.9717C14.2569 43.9717 13.1747 43.821 12.196 43.5196C11.2361 43.237 10.3704 42.8131 9.5987 42.2479C9.18464 41.9653 8.79881 41.6545 8.44121 41.3153C8.08361 40.9574 7.74483 40.5712 7.42488 40.1567L7.05787 43.4066H0V0H7.84835V15.5992C8.22477 15.1659 8.62942 14.7703 9.0623 14.4123C9.49519 14.0355 9.9563 13.7153 10.4456 13.4515C11.142 13.0559 11.8949 12.7639 12.7042 12.5755C13.5323 12.3682 14.4263 12.2646 15.3862 12.2646C16.7036 12.2646 17.9082 12.4342 18.9998 12.7733C20.1102 13.1124 21.0983 13.6022 21.9641 14.2428C22.6605 14.7326 23.291 15.3261 23.8556 16.0231C24.4202 16.7013 24.919 17.4455 25.3519 18.2556C26.0294 19.5556 26.5282 21.0156 26.8481 22.6358C27.1869 24.256 27.3563 25.9893 27.3563 27.8356V28.429ZM19.5079 27.8356C19.5079 27.0255 19.4703 26.2436 19.395 25.49C19.3197 24.7365 19.1974 24.03 19.028 23.3706C18.821 22.5982 18.5481 21.9105 18.2093 21.3076C17.8893 20.6859 17.4 20.1207 16.7413 19.6121C16.3084 19.2918 15.819 19.0563 15.2732 18.9056C14.7274 18.736 14.1063 18.6513 13.41 18.6513C12.4689 18.6513 11.6408 18.7831 10.9256 19.0469C10.2104 19.3106 9.5987 19.6969 9.09054 20.2055C8.84586 20.4504 8.62001 20.733 8.41298 21.0533C8.20595 21.3547 8.01774 21.6844 7.84835 22.0424V34.2222C8.0742 34.6932 8.32829 35.1265 8.6106 35.5222C8.91174 35.899 9.25992 36.2286 9.65516 36.5112C10.1257 36.8692 10.6715 37.1424 11.2926 37.3308C11.9325 37.5192 12.6571 37.6134 13.4664 37.6134C14.1628 37.6134 14.7933 37.5286 15.3579 37.359C15.9226 37.1895 16.4119 36.954 16.826 36.6525C17.4094 36.2381 17.8799 35.7011 18.2375 35.0417C18.614 34.3635 18.8963 33.6005 19.0845 32.7527C19.235 32.131 19.3386 31.4528 19.395 30.718C19.4703 29.9833 19.5079 29.2203 19.5079 28.429V27.8356Z" fill="#68CD64"/>
<path d="M36.6445 12.8298H53.2728V37.0199H61.5446V43.4066H36.6445V37.0199H45.3398V19.2447H36.6445V12.8298ZM44.7751 5.00193C44.7751 4.39906 44.8786 3.84329 45.0857 3.33462C45.3115 2.80711 45.6221 2.35496 46.0173 1.97816C46.4126 1.62021 46.8831 1.33762 47.4289 1.13038C47.9935 0.923143 48.6146 0.819525 49.2922 0.819525C50.6849 0.819525 51.7859 1.21516 52.5952 2.00642C53.4234 2.77885 53.8374 3.77735 53.8374 5.00193C53.8374 6.2265 53.4234 7.23443 52.5952 8.02569C51.7859 8.79812 50.6849 9.18433 49.2922 9.18433C48.6146 9.18433 47.9935 9.08071 47.4289 8.87348C46.8831 8.66624 46.4126 8.37422 46.0173 7.99743C45.6221 7.63948 45.3115 7.20617 45.0857 6.69749C44.8786 6.16998 44.7751 5.6048 44.7751 5.00193Z" fill="#68CD64"/>
<path d="M83.6781 5.34104V12.8298H95.0836V18.623H83.6781V31.7636C83.6781 32.8752 83.8004 33.8078 84.0451 34.5613C84.3086 35.2961 84.6756 35.8801 85.1461 36.3134C85.6167 36.7656 86.1813 37.0858 86.84 37.2742C87.5176 37.4626 88.2704 37.5568 89.0985 37.5568C89.7008 37.5568 90.3125 37.5286 90.9336 37.4721C91.5735 37.4155 92.1852 37.3402 92.7686 37.246C93.3333 37.1706 93.8602 37.0858 94.3496 36.9916C94.8578 36.8974 95.2906 36.8033 95.6482 36.7091L96.4105 42.1066C95.8647 42.4269 95.2248 42.7095 94.4908 42.9544C93.7567 43.1805 92.9757 43.3689 92.1475 43.5196C91.3194 43.6703 90.4537 43.7833 89.5502 43.8587C88.6657 43.9529 87.7905 44 86.9247 44C85.2497 44 83.7252 43.7833 82.3512 43.35C80.9961 42.8979 79.8386 42.2008 78.8787 41.2588C77.9001 40.3357 77.1472 39.1582 76.6202 37.7264C76.0932 36.2757 75.8298 34.5425 75.8298 32.5267V18.623H68.8566V12.8298H75.8298V5.34104H83.6781Z" fill="#68CD64"/>
<path d="M117.528 37.6981C118.299 37.6981 119.033 37.5851 119.73 37.359C120.426 37.133 121.038 36.8127 121.565 36.3982C122.092 35.9837 122.496 35.4845 122.779 34.9005C123.08 34.3164 123.212 33.6665 123.174 32.9505H130.571C130.608 34.5331 130.279 36.0026 129.582 37.359C128.905 38.7155 127.973 39.8835 126.788 40.8632C125.602 41.8429 124.219 42.6153 122.638 43.1805C121.075 43.7268 119.419 44 117.669 44C115.297 44 113.218 43.6044 111.43 42.8131C109.642 42.003 108.155 40.9009 106.969 39.5067C105.765 38.1126 104.852 36.483 104.231 34.6179C103.628 32.7339 103.327 30.7181 103.327 28.5703V27.7225C103.327 25.5748 103.628 23.5684 104.231 21.7033C104.833 19.8193 105.736 18.1803 106.941 16.7861C108.145 15.392 109.632 14.2899 111.401 13.4798C113.189 12.6697 115.26 12.2646 117.612 12.2646C119.494 12.2646 121.235 12.5472 122.835 13.1124C124.435 13.6776 125.818 14.4689 126.985 15.4862C128.133 16.5224 129.027 17.7752 129.667 19.2447C130.307 20.6954 130.608 22.325 130.571 24.1336H123.174C123.212 23.38 123.099 22.6641 122.835 21.9859C122.572 21.3076 122.186 20.7236 121.678 20.2338C121.17 19.744 120.558 19.3577 119.843 19.0751C119.127 18.7737 118.346 18.623 117.499 18.623C116.257 18.623 115.231 18.8773 114.422 19.386C113.613 19.8947 112.973 20.5729 112.502 21.4207C112.013 22.2685 111.665 23.2387 111.458 24.3314C111.27 25.4241 111.176 26.5545 111.176 27.7225V28.5703C111.176 29.7572 111.27 30.9064 111.458 32.018C111.646 33.1107 111.985 34.0715 112.474 34.9005C112.945 35.7482 113.585 36.4265 114.394 36.9351C115.222 37.4438 116.267 37.6981 117.528 37.6981Z" fill="#68CD64"/>
<path d="M146.578 17.0405C146.973 16.4564 147.406 15.9195 147.876 15.4297C148.366 14.921 148.874 14.4783 149.401 14.1015C150.21 13.5174 151.104 13.0653 152.083 12.745C153.062 12.4247 154.097 12.2646 155.188 12.2646C156.788 12.2646 158.256 12.5095 159.593 12.9994C160.929 13.4703 162.077 14.2145 163.037 15.2319C163.997 16.2492 164.74 17.5586 165.267 19.1599C165.813 20.7425 166.086 22.6547 166.086 24.8966V43.4066H158.237V24.8401C158.237 23.7474 158.096 22.8054 157.814 22.0141C157.55 21.2229 157.165 20.5823 156.656 20.0925C156.148 19.6027 155.537 19.2447 154.821 19.0186C154.106 18.7737 153.297 18.6513 152.394 18.6513C151.697 18.6513 151.048 18.7172 150.446 18.8491C149.843 18.9809 149.297 19.1788 148.808 19.4425C148.356 19.6686 147.942 19.9418 147.566 20.262C147.208 20.5823 146.879 20.9403 146.578 21.3359V43.4066H138.729V0H146.578V17.0405Z" fill="#68CD64"/>
<path d="M192.539 43.4066C192.35 43.0298 192.19 42.5964 192.059 42.1066C191.927 41.6168 191.814 41.0987 191.72 40.5523C191.287 41.0233 190.788 41.4661 190.224 41.8805C189.659 42.295 189.038 42.653 188.36 42.9544C187.664 43.2747 186.902 43.5196 186.074 43.6891C185.246 43.8775 184.352 43.9717 183.392 43.9717C181.83 43.9717 180.39 43.7457 179.072 43.2935C177.774 42.8414 176.654 42.2102 175.713 41.4001C174.772 40.59 174.038 39.6292 173.511 38.5177C172.984 37.3873 172.72 36.1627 172.72 34.8439C172.72 33.1484 173.05 31.6506 173.708 30.3507C174.367 29.0319 175.355 27.9486 176.673 27.1008C177.858 26.3284 179.317 25.7444 181.048 25.3487C182.799 24.9343 184.803 24.727 187.062 24.727H191.438V22.9184C191.438 22.2025 191.325 21.562 191.099 20.9968C190.873 20.4128 190.534 19.9135 190.083 19.499C189.612 19.0657 189.019 18.736 188.304 18.51C187.608 18.265 186.789 18.1426 185.848 18.1426C185.02 18.1426 184.305 18.2462 183.702 18.4534C183.1 18.6418 182.611 18.915 182.234 19.273C181.895 19.5932 181.641 19.9794 181.472 20.4316C181.321 20.8838 181.246 21.383 181.246 21.9294H173.398C173.398 20.6294 173.68 19.3954 174.245 18.2274C174.828 17.0593 175.675 16.0325 176.786 15.1471C177.877 14.2616 179.213 13.5645 180.794 13.0559C182.394 12.5284 184.22 12.2646 186.271 12.2646C188.116 12.2646 189.828 12.4907 191.409 12.9428C193.009 13.395 194.393 14.0638 195.559 14.9493C196.726 15.8347 197.639 16.9557 198.298 18.3121C198.957 19.6498 199.286 21.204 199.286 22.975V36.0873C199.286 37.7264 199.39 39.0829 199.597 40.1567C199.804 41.2306 200.105 42.1537 200.5 42.9261V43.4066H192.539ZM185.057 37.896C185.848 37.896 186.582 37.8018 187.259 37.6134C187.937 37.425 188.549 37.18 189.094 36.8786C189.64 36.5772 190.111 36.2381 190.506 35.8613C190.901 35.4656 191.212 35.07 191.438 34.6744V29.4181H187.429C186.205 29.4181 185.161 29.5406 184.295 29.7855C183.429 30.0116 182.724 30.3318 182.178 30.7463C181.632 31.1796 181.227 31.6977 180.964 32.3006C180.7 32.8846 180.569 33.5252 180.569 34.2222C180.569 34.7686 180.663 35.2772 180.851 35.7482C181.058 36.2004 181.35 36.5866 181.726 36.9069C182.102 37.2083 182.564 37.4532 183.109 37.6416C183.674 37.8112 184.323 37.896 185.057 37.896Z" fill="#68CD64"/>
<path d="M222.577 5.34104V12.8298H233.982V18.623H222.577V31.7636C222.577 32.8752 222.699 33.8078 222.944 34.5613C223.207 35.2961 223.574 35.8801 224.045 36.3134C224.516 36.7656 225.08 37.0858 225.739 37.2742C226.416 37.4626 227.169 37.5568 227.997 37.5568C228.6 37.5568 229.211 37.5286 229.832 37.4721C230.472 37.4155 231.084 37.3402 231.668 37.246C232.232 37.1706 232.759 37.0858 233.248 36.9916C233.757 36.8974 234.189 36.8033 234.547 36.7091L235.309 42.1066C234.764 42.4269 234.124 42.7095 233.39 42.9544C232.656 43.1805 231.875 43.3689 231.046 43.5196C230.218 43.6703 229.353 43.7833 228.449 43.8587C227.565 43.9529 226.689 44 225.824 44C224.149 44 222.624 43.7833 221.25 43.35C219.895 42.8979 218.737 42.2008 217.778 41.2588C216.799 40.3357 216.046 39.1582 215.519 37.7264C214.992 36.2757 214.729 34.5425 214.729 32.5267V18.623H207.755V12.8298H214.729V5.34104H222.577Z" fill="#68CD64"/>
<path d="M243.123 35.8946L239.996 30.5111L250.127 25.2527L239.996 19.6188L243.123 14.3604L252.754 20.2448V8.60128H258.382V20.2448L267.763 14.3604L271.014 19.6188L261.009 25.2527L271.014 30.5111L267.763 35.8946L258.382 29.7599V41.5286H252.754V29.7599L243.123 35.8946Z" fill="#68CD64"/>
</svg>
