<svg width="112" height="31" viewBox="0 0 112 31" fill="none" xmlns="http://www.w3.org/2000/svg">
<g clip-path="url(#clip0_207_2083)">
<g clip-path="url(#clip1_207_2083)">
<path d="M8.52422 -0.00781176C7.3991 -0.00220044 6.28608 0.226178 5.24875 0.664322C4.21142 1.10247 3.2701 1.74182 2.47855 2.54579C1.68699 3.34974 1.0607 4.30261 0.635444 5.34995C0.210189 6.39729 -0.00569141 7.5186 0.000114052 8.64984V11.5096H6.92601V7.36642C6.92593 7.17184 6.96398 6.97917 7.03799 6.79939C7.112 6.6196 7.22052 6.45625 7.35734 6.31866C7.49417 6.18106 7.65663 6.07196 7.83542 5.99751C8.01422 5.92305 8.20585 5.88477 8.39938 5.8848H8.64907C8.8426 5.88477 9.03428 5.92306 9.21303 5.99751C9.39187 6.07196 9.55432 6.18106 9.69123 6.31866C9.82804 6.45625 9.93655 6.6196 10.0106 6.79939C10.0847 6.97917 10.1227 7.17184 10.1227 7.36642V18.4731C11.0323 18.4731 11.9329 18.293 12.7732 17.9431C13.6135 17.5931 14.377 17.0802 15.0202 16.4336C15.6633 15.787 16.1734 15.0193 16.5215 14.1744C16.8695 13.3296 17.0486 12.424 17.0486 11.5096V8.64984C17.0536 6.3578 16.1559 4.15697 14.5518 2.52838C13.7647 1.72471 12.8264 1.08658 11.7915 0.651157C10.7567 0.215736 9.64607 -0.00828392 8.52422 -0.00781176Z" fill="#F2F2F2"/>
<path d="M8.6494 24.0958H8.39971C8.20621 24.0958 8.0146 24.0575 7.83583 23.9831C7.65705 23.9086 7.49461 23.7995 7.35779 23.6619C7.22096 23.5243 7.11244 23.3611 7.03841 23.1813C6.96438 23.0016 6.9263 22.8089 6.92634 22.6144V11.5078C6.01679 11.5077 5.11613 11.6877 4.27581 12.0376C3.43549 12.3876 2.67197 12.9005 2.02882 13.5471C1.38568 14.1938 0.875513 14.9614 0.527482 15.8064C0.179451 16.6512 0.000368694 17.5568 0.000446961 18.4713V21.2911C-0.0110914 22.424 0.200874 23.548 0.624084 24.598C1.04729 25.648 1.67334 26.6033 2.46604 27.4085C3.25873 28.2136 4.20234 28.8528 5.24228 29.2891C6.28222 29.7254 7.39788 29.95 8.5247 29.95C9.65153 29.95 10.7671 29.7254 11.8071 29.2891C12.847 28.8528 13.7907 28.2136 14.5834 27.4085C15.3761 26.6033 16.0021 25.648 16.4253 24.598C16.8486 23.548 17.0605 22.424 17.0489 21.2911V18.4713H10.1231V22.6144C10.1231 22.809 10.0849 23.0016 10.0109 23.1813C9.93682 23.3611 9.82823 23.5244 9.69141 23.662C9.55459 23.7996 9.39214 23.9086 9.2133 23.9831C9.03455 24.0575 8.84291 24.0958 8.6494 24.0958Z" fill="#F2F2F2"/>
<path d="M28.8874 8.78516H26.46V21.1664H33.5846V18.8322H28.8877L28.8874 8.78516Z" fill="#F2F2F2"/>
<path d="M41.3582 13.37C41.0158 12.9421 40.5774 12.602 40.079 12.3776C39.5805 12.1532 39.0362 12.0508 38.4907 12.0787C37.9208 12.0742 37.3566 12.1927 36.8361 12.4262C36.3156 12.6597 35.851 13.0028 35.4737 13.4322C34.6636 14.3449 34.2158 15.5254 34.2158 16.7488C34.2158 17.9721 34.6636 19.1526 35.4737 20.0653C35.8511 20.4946 36.3158 20.8375 36.8363 21.0709C37.3567 21.3042 37.9209 21.4227 38.4907 21.4182C39.7223 21.4182 40.6781 20.9877 41.3582 20.127V21.1707H43.6278V12.327H41.3582V13.37ZM40.6637 18.5438C40.4348 18.7742 40.1613 18.9549 39.8604 19.0751C39.5593 19.1952 39.237 19.2521 38.9133 19.2423C38.5907 19.2527 38.2696 19.1961 37.9698 19.0759C37.6701 18.9557 37.3983 18.7745 37.1714 18.5438C36.7296 18.0513 36.4852 17.4115 36.4852 16.7483C36.4852 16.085 36.7296 15.4454 37.1714 14.9528C37.3984 14.7223 37.6703 14.5413 37.97 14.4211C38.2696 14.301 38.5908 14.2443 38.9133 14.2545C39.2369 14.2449 39.5592 14.3019 39.8602 14.4219C40.1612 14.542 40.4347 14.7226 40.6637 14.9528C41.1105 15.4429 41.3582 16.0835 41.3582 16.7483C41.3582 17.4131 41.1105 18.0537 40.6637 18.5438Z" fill="#F2F2F2"/>
<path d="M49.4768 18.2625L47.1826 12.3184H44.7021L48.3074 20.8795C48.1565 21.3904 47.8598 21.8454 47.4541 22.1883C47.0277 22.4791 46.5162 22.6163 46.0024 22.5777V24.7005C47.0041 24.7936 48.0054 24.5202 48.8226 23.9303C49.5774 23.3575 50.1837 22.4398 50.6416 21.1773L53.8484 12.319H51.4207L49.4768 18.2625Z" fill="#F2F2F2"/>
<path d="M58.7613 12.077C58.1426 12.0551 57.5261 12.1625 56.9508 12.3924C56.3756 12.6223 55.854 12.9698 55.4191 13.4128C54.5794 14.3204 54.114 15.5149 54.1172 16.7547C54.1203 17.9943 54.5919 19.1864 55.4364 20.0897C56.3162 20.9737 57.4831 21.4159 58.9373 21.4161C60.6257 21.4161 61.9041 20.7854 62.7723 19.524L60.9428 18.4623C60.7102 18.7592 60.4094 18.9947 60.0661 19.1488C59.7229 19.3029 59.3476 19.3708 58.9724 19.3467C57.6235 19.3467 56.7967 18.7926 56.4918 17.6843H63.1242C63.1808 17.375 63.2103 17.061 63.2121 16.7464C63.2457 15.5145 62.7936 14.3193 61.9544 13.4212C61.5479 12.9815 61.0529 12.6341 60.5022 12.4023C59.9515 12.1705 59.358 12.0596 58.7613 12.077ZM56.4568 15.9154C56.5573 15.3957 56.8376 14.9287 57.2483 14.5973C57.6848 14.2728 58.2184 14.1074 58.761 14.1287C59.2568 14.1222 59.7415 14.2775 60.1423 14.5712C60.5685 14.9012 60.8545 15.3814 60.9426 15.9151L56.4568 15.9154Z" fill="#F2F2F2"/>
<path d="M67.0615 13.8424V12.3209H64.792V21.1648H67.0615V16.9376C67.0615 16.0886 67.3341 15.4813 67.8793 15.1157C68.4254 14.75 69.0861 14.5988 69.7357 14.6911V12.1448C69.1652 12.1375 68.6032 12.2841 68.1082 12.5692C67.6193 12.8544 67.2481 13.3061 67.0615 13.8424Z" fill="#F2F2F2"/>
<path d="M80.7988 10.6981V8.7832H72.7266V11.1181H77.723L72.5967 19.2146V21.1642H80.8968V18.8299H75.6719L80.7988 10.6981Z" fill="#F2F2F2"/>
<path d="M86.2577 12.077C85.639 12.0551 85.0225 12.1625 84.4472 12.3924C83.8718 12.6223 83.3503 12.9698 82.9153 13.4128C82.0755 14.3204 81.61 15.515 81.6133 16.7547C81.6165 17.9944 82.0883 19.1865 82.9328 20.0897C83.8126 20.9737 84.9795 21.4159 86.4335 21.4161C88.1219 21.4161 89.4003 20.7854 90.2687 19.524L88.439 18.4623C88.2064 18.7591 87.9056 18.9947 87.5625 19.1487C87.2193 19.3028 86.8441 19.3707 86.469 19.3467C85.1199 19.3467 84.2931 18.7926 83.9885 17.6843H90.6208C90.6772 17.3749 90.7068 17.061 90.7086 16.7464C90.7417 15.5145 90.2902 14.3193 89.4509 13.4212C89.0445 12.9815 88.5493 12.6341 87.9986 12.4023C87.448 12.1705 86.8545 12.0596 86.2577 12.077ZM83.9534 15.9154C84.0537 15.3957 84.3343 14.9286 84.745 14.5973C85.1816 14.2726 85.7152 14.1073 86.2577 14.1287C86.7537 14.122 87.2383 14.2773 87.639 14.5712C88.0653 14.9012 88.3512 15.3814 88.439 15.9151L83.9534 15.9154Z" fill="#F2F2F2"/>
<path d="M94.5577 13.8424V12.3209H92.2881V21.1648H94.5577V16.9376C94.5577 16.0886 94.83 15.4813 95.3757 15.1157C95.9214 14.75 96.5817 14.5989 97.2313 14.6911V12.1448C96.6615 12.1375 96.0988 12.2841 95.6042 12.5692C95.115 12.8544 94.744 13.306 94.5577 13.8424Z" fill="#F2F2F2"/>
<path d="M102.407 12.0754C101.342 12.0872 100.314 12.4692 99.4976 13.1565C98.6814 13.8438 98.1259 14.7941 97.9278 15.846C97.7289 16.8978 97.8983 17.9863 98.4072 18.9268C98.9161 19.8674 99.7333 20.6017 100.719 21.0054C101.705 21.4089 102.8 21.457 103.818 21.1411C104.835 20.8253 105.712 20.165 106.301 19.2726C106.89 18.3802 107.152 17.3106 107.046 16.2454C106.938 15.1801 106.468 14.185 105.714 13.4289C105.284 12.9875 104.769 12.6397 104.2 12.4068C103.631 12.1741 103.021 12.0612 102.407 12.0754ZM104.113 18.4961C103.891 18.722 103.625 18.8997 103.331 19.0182C103.038 19.1367 102.723 19.1935 102.407 19.1851C102.092 19.1941 101.778 19.1376 101.486 19.019C101.194 18.9004 100.929 18.7225 100.708 18.4961C100.273 18.0181 100.031 17.3933 100.031 16.7449C100.031 16.0967 100.273 15.4719 100.708 14.9938C100.929 14.7675 101.194 14.5896 101.486 14.471C101.778 14.3525 102.092 14.2958 102.407 14.3047C102.723 14.2964 103.037 14.3533 103.331 14.4718C103.625 14.5903 103.891 14.768 104.113 14.9938C104.554 15.4691 104.799 16.095 104.799 16.7449C104.799 17.395 104.554 18.0208 104.113 18.4961Z" fill="#F2F2F2"/>
<path d="M111.829 18.4434H109.067V21.1673H111.829V18.4434Z" fill="#F2F2F2"/>
<path d="M111.829 18.4434H109.067V21.1673H111.829V18.4434Z" fill="#F2F2F2"/>
</g>
</g>
<defs>
<clipPath id="clip0_207_2083">
<rect width="112" height="30.45" fill="white"/>
</clipPath>
<clipPath id="clip1_207_2083">
<rect width="112" height="30.464" fill="white" transform="translate(0 -0.0078125)"/>
</clipPath>
</defs>
</svg>
