<svg width="18" height="30" viewBox="0 0 18 30" fill="none" xmlns="http://www.w3.org/2000/svg">
<path d="M8.52422 -0.00781176C7.3991 -0.00220044 6.28608 0.226178 5.24875 0.664322C4.21142 1.10247 3.2701 1.74182 2.47855 2.54579C1.68699 3.34974 1.0607 4.30261 0.635444 5.34995C0.210189 6.39729 -0.00569141 7.5186 0.000114052 8.64984V11.5096H6.92601V7.36642C6.92593 7.17184 6.96398 6.97917 7.03799 6.79939C7.112 6.6196 7.22052 6.45625 7.35734 6.31866C7.49417 6.18106 7.65663 6.07196 7.83542 5.99751C8.01422 5.92305 8.20585 5.88477 8.39938 5.8848H8.64907C8.8426 5.88477 9.03428 5.92306 9.21303 5.99751C9.39187 6.07196 9.55432 6.18106 9.69123 6.31866C9.82804 6.45625 9.93655 6.6196 10.0106 6.79939C10.0847 6.97917 10.1227 7.17184 10.1227 7.36642V18.4731C11.0323 18.4731 11.9329 18.293 12.7732 17.9431C13.6135 17.5931 14.377 17.0802 15.0202 16.4336C15.6633 15.787 16.1734 15.0193 16.5215 14.1744C16.8695 13.3296 17.0486 12.424 17.0486 11.5096V8.64984C17.0536 6.3578 16.1559 4.15697 14.5518 2.52838C13.7647 1.72471 12.8264 1.08658 11.7915 0.651157C10.7567 0.215736 9.64607 -0.00828392 8.52422 -0.00781176Z" fill="#F2F2F2"/>
<path d="M8.6494 24.0958H8.39971C8.20621 24.0958 8.0146 24.0575 7.83583 23.9831C7.65705 23.9086 7.49461 23.7995 7.35779 23.6619C7.22096 23.5243 7.11244 23.3611 7.03841 23.1813C6.96438 23.0016 6.9263 22.8089 6.92634 22.6144V11.5078C6.01679 11.5077 5.11613 11.6877 4.27581 12.0376C3.43549 12.3876 2.67197 12.9005 2.02882 13.5471C1.38568 14.1938 0.875513 14.9614 0.527482 15.8064C0.179451 16.6512 0.000368694 17.5568 0.000446961 18.4713V21.2911C-0.0110914 22.424 0.200874 23.548 0.624084 24.598C1.04729 25.648 1.67334 26.6033 2.46604 27.4085C3.25873 28.2136 4.20234 28.8528 5.24228 29.2891C6.28222 29.7254 7.39788 29.95 8.5247 29.95C9.65153 29.95 10.7671 29.7254 11.8071 29.2891C12.847 28.8528 13.7907 28.2136 14.5834 27.4085C15.3761 26.6033 16.0021 25.648 16.4253 24.598C16.8486 23.548 17.0605 22.424 17.0489 21.2911V18.4713H10.1231V22.6144C10.1231 22.809 10.0849 23.0016 10.0109 23.1813C9.93682 23.3611 9.82823 23.5244 9.69141 23.662C9.55459 23.7996 9.39214 23.9086 9.2133 23.9831C9.03455 24.0575 8.84291 24.0958 8.6494 24.0958Z" fill="#F2F2F2"/>
</svg>
